<?xml version="1.0" encoding="UTF-8" standalone="no"?>
<!-- Created with Inkscape (http://www.inkscape.org/) -->

<svg
   version="1.1"
   id="svg840"
   xml:space="preserve"
   width="8.2677221in"
   height="11.692917in"
   viewBox="0 0 793.70135 1122.52"
   sodipodi:docname="fig-concept.svg"
   inkscape:version="1.1.2 (0a00cf5339, 2022-02-04)"
   xmlns:inkscape="http://www.inkscape.org/namespaces/inkscape"
   xmlns:sodipodi="http://sodipodi.sourceforge.net/DTD/sodipodi-0.dtd"
   xmlns:xlink="http://www.w3.org/1999/xlink"
   xmlns="http://www.w3.org/2000/svg"
   xmlns:svg="http://www.w3.org/2000/svg"><defs
     id="defs844"><radialGradient
       fx="0"
       fy="0"
       cx="0"
       cy="0"
       r="100"
       gradientUnits="userSpaceOnUse"
       gradientTransform="matrix(0.3121105,-0.3184659,-0.3184659,-0.3121105,492.02352,778.4616)"
       spreadMethod="pad"
       id="radialGradient2639"><stop
         style="stop-opacity:1;stop-color:#b2d1ed"
         offset="0"
         id="stop2635" /><stop
         style="stop-opacity:1;stop-color:#ffffff"
         offset="1"
         id="stop2637" /></radialGradient><radialGradient
       fx="0"
       fy="0"
       cx="0"
       cy="0"
       r="100"
       gradientUnits="userSpaceOnUse"
       gradientTransform="matrix(0.3121105,-0.3184659,-0.3184659,-0.3121105,492.02352,778.4616)"
       spreadMethod="pad"
       id="radialGradient864"
       xlink:href="#radialGradient2639"><stop
         style="stop-opacity:1;stop-color:#73a9de"
         offset="0"
         id="stop860" /><stop
         style="stop-opacity:1;stop-color:#ffffff"
         offset="1"
         id="stop862" /></radialGradient><radialGradient
       fx="0"
       fy="0"
       cx="0"
       cy="0"
       r="100"
       gradientUnits="userSpaceOnUse"
       gradientTransform="matrix(0.1813877,-0.216459,-0.216459,-0.1813877,264.57461,773.07487)"
       spreadMethod="pad"
       id="radialGradient884"><stop
         style="stop-opacity:1;stop-color:#6ba5dd"
         offset="0"
         id="stop880" /><stop
         style="stop-opacity:1;stop-color:#ffffff"
         offset="1"
         id="stop882" /></radialGradient><clipPath
       clipPathUnits="userSpaceOnUse"
       id="clipPath894"><path
         d="M 0,841.89 H 595.276 V 0 H 0 Z"
         id="path892" /></clipPath><clipPath
       clipPathUnits="userSpaceOnUse"
       id="clipPath918"><path
         d="M 0,841.89 H 595.276 V 0 H 0 Z"
         id="path916" /></clipPath><clipPath
       clipPathUnits="userSpaceOnUse"
       id="clipPath934"><path
         d="M 0,841.89 H 595.276 V 0 H 0 Z"
         id="path932" /></clipPath><clipPath
       clipPathUnits="userSpaceOnUse"
       id="clipPath990"><path
         d="M 0,841.89 H 595.276 V 0 H 0 Z"
         id="path988" /></clipPath><radialGradient
       fx="2.228262e-11"
       fy="5.4569682e-12"
       cx="2.228262e-11"
       cy="5.4569682e-12"
       r="100"
       gradientUnits="userSpaceOnUse"
       gradientTransform="matrix(0.13456251,-0.20020182,-0.20983041,-0.14103421,356.69966,776.15091)"
       spreadMethod="pad"
       id="radialGradient1020"><stop
         style="stop-opacity:1;stop-color:#10589c"
         offset="0"
         id="stop1016" /><stop
         style="stop-opacity:1;stop-color:#ffffff"
         offset="1"
         id="stop1018" /></radialGradient><clipPath
       clipPathUnits="userSpaceOnUse"
       id="clipPath1030"><path
         d="M 0,841.89 H 595.276 V 0 H 0 Z"
         id="path1028" /></clipPath><clipPath
       clipPathUnits="userSpaceOnUse"
       id="clipPath1046"><path
         d="M 0,841.89 H 595.276 V 0 H 0 Z"
         id="path1044" /></clipPath><clipPath
       clipPathUnits="userSpaceOnUse"
       id="clipPath1134"><path
         d="M 0,841.89 H 595.276 V 0 H 0 Z"
         id="path1132" /></clipPath><linearGradient
       x1="0"
       y1="0"
       x2="100"
       y2="0"
       gradientUnits="userSpaceOnUse"
       gradientTransform="matrix(-0.2539635,0,0,-0.1148002,205.94511,706.77194)"
       spreadMethod="pad"
       id="linearGradient1176"><stop
         style="stop-opacity:1;stop-color:#214a82"
         offset="0"
         id="stop1172" /><stop
         style="stop-opacity:1;stop-color:#ffffff"
         offset="1"
         id="stop1174" /></linearGradient><clipPath
       clipPathUnits="userSpaceOnUse"
       id="clipPath1196"><path
         d="M 0,841.89 H 595.276 V 0 H 0 Z"
         id="path1194" /></clipPath><clipPath
       clipPathUnits="userSpaceOnUse"
       id="clipPath1214"><path
         d="M 0,841.89 H 595.276 V 0 H 0 Z"
         id="path1212" /></clipPath><clipPath
       clipPathUnits="userSpaceOnUse"
       id="clipPath1230"><path
         d="M 0,841.89 H 595.276 V 0 H 0 Z"
         id="path1228" /></clipPath><radialGradient
       inkscape:collect="always"
       xlink:href="#radialGradient2639"
       id="radialGradient2505"
       cx="5.7452354"
       cy="-30.552286"
       fx="5.7452354"
       fy="-30.552286"
       r="30.260071"
       gradientTransform="matrix(1.1639061,0.02583919,-0.02262813,1.0192664,-1.6330203,0.44017785)"
       gradientUnits="userSpaceOnUse" /></defs><sodipodi:namedview
     id="namedview842"
     pagecolor="#ffffff"
     bordercolor="#666666"
     borderopacity="1.0"
     inkscape:pageshadow="2"
     inkscape:pageopacity="0.0"
     inkscape:pagecheckerboard="0"
     showgrid="false"
     showguides="false"
     inkscape:guide-bbox="true"
     inkscape:snap-text-baseline="true"
     inkscape:snap-smooth-nodes="true"
     inkscape:zoom="2.1220112"
     inkscape:cx="386.66148"
     inkscape:cy="119.93339"
     inkscape:window-width="1714"
     inkscape:window-height="1400"
     inkscape:window-x="4282"
     inkscape:window-y="36"
     inkscape:window-maximized="0"
     inkscape:current-layer="g846"
     units="in"
     inkscape:document-units="in"><sodipodi:guide
       position="82.050605,926.60326"
       orientation="0,-1"
       id="guide74267" /><sodipodi:guide
       position="91.722185,955.45546"
       orientation="0,-1"
       id="guide86173" /><sodipodi:guide
       position="452.43924,1096.3897"
       orientation="0,-1"
       id="guide99672" /></sodipodi:namedview><g
     id="g846"
     inkscape:groupmode="layer"
     inkscape:label="Concept_figure_v1"
     transform="matrix(1.3333333,0,0,-1.3333333,0,1122.52)"><g
       id="g848"><g
         id="g850"><g
           id="g856"><g
             id="g858"><path
               d="m 476.053,808.222 -2.983,-1.267 -1.505,-4.026 0.161,-3.54 c 0.135,-1.045 0.294,-2.086 0.479,-3.124 v 0 c 0.208,-1.168 0.447,-2.33 0.718,-3.485 v 0 l -0.669,-5.93 -3.074,-5.674 -4.639,-4.943 -1.968,-3.661 -1.45,-7.007 1.474,-6.707 4.085,-3.295 4.311,-3.051 7.63,-1.385 4.338,-1.976 5.927,-0.75 4.738,-0.453 5.068,-1.023 4.953,0.561 6.045,0.033 5.448,2.27 5.944,7.763 c 0.585,1.207 1.038,2.476 1.35,3.781 v 0 c 0.277,1.161 0.441,2.347 0.49,3.539 v 0 l -2.586,5.02 -4.15,3.347 -0.069,4.36 2.096,4.968 1.855,5.923 -0.078,3.886 -1.893,5.027 -3.238,3.727 -6.806,1.296 -6.402,-1.588 -5.554,0.335 -3.112,3.587 -2.755,2.763 -6.918,2.475 z"
               style="fill:url(#radialGradient864);fill-opacity:1;stroke:none"
               id="path866" /></g></g></g></g><g
       id="g868"><g
         id="g870"><g
           id="g876"><g
             id="g878"><path
               d="m 256.912,794.318 c -0.265,-0.037 -0.529,-0.084 -0.792,-0.142 v 0 c -1.119,-0.618 -2.143,-1.396 -3.037,-2.31 v 0 c -0.79,-0.807 -1.472,-1.714 -2.03,-2.696 v 0 l -1.508,-2.439 -2.086,-3.851 0.075,-6.269 -0.788,-4.334 1.415,-3.882 1.157,-6.794 1.967,-1.06 2.257,-2.054 3.103,-3.205 3.962,-1.649 c 0.407,-0.535 0.914,-0.985 1.495,-1.325 v 0 c 0.444,-0.26 0.926,-0.452 1.427,-0.569 v 0 c 0.705,0.169 1.37,0.473 1.958,0.896 v 0 c 0.512,0.368 0.956,0.82 1.316,1.336 v 0 l 4.013,2.597 3.716,0.215 3.086,2.989 1.135,3.275 0.691,3.21 1.386,2.551 1.008,5.145 0.566,4.441 -1.349,3.81 -1.093,2.961 -3.979,2.614 -2.055,0.911 -2.51,2.494 -3.435,1.226 -2.398,1.277 -4.202,0.221 c -0.83,0.275 -1.693,0.439 -2.567,0.488 v 0 c -0.182,0.01 -0.364,0.015 -0.546,0.015 v 0 c -0.454,0 -0.908,-0.031 -1.358,-0.093"
               style="fill:url(#radialGradient884);stroke:none"
               id="path886" /></g></g></g></g><g
       id="g888"><g
         id="g890"
         clip-path="url(#clipPath894)"><g
           id="g896"
           transform="translate(267.9829,792.4107)"><path
             d="M 0,0 3.434,-1.227 5.946,-3.721 8,-4.632 l 3.979,-2.613 1.093,-2.961 1.348,-3.811 -0.565,-4.441 -1.008,-5.145 -1.386,-2.55 -0.692,-3.211 -1.134,-3.275 -3.086,-2.988 -3.716,-0.216 -4.013,-2.596 c -0.359,-0.517 -0.804,-0.969 -1.316,-1.337 -0.588,-0.423 -1.253,-0.727 -1.958,-0.896 -0.502,0.117 -0.983,0.309 -1.428,0.569 -0.58,0.34 -1.088,0.79 -1.494,1.325 l -3.962,1.649 -3.103,3.205 -2.257,2.055 -1.967,1.059 -1.158,6.794 -1.414,3.883 0.788,4.333 -0.076,6.269 2.087,3.851 1.509,2.439 c 0.557,0.983 1.239,1.889 2.029,2.696 0.894,0.914 1.918,1.693 3.037,2.311 0.885,0.195 1.792,0.269 2.696,0.219 C -8.294,1.936 -7.43,1.772 -6.6,1.498 l 4.201,-0.222 z"
             style="fill:none;stroke:#110f0d;stroke-width:0.5;stroke-linecap:butt;stroke-linejoin:miter;stroke-miterlimit:4;stroke-dasharray:1, 1;stroke-dashoffset:0;stroke-opacity:1"
             id="path898" /></g><g
           id="g900"
           transform="translate(161.7625,805.1702)"><path
             d="m 0,0 c 1.44,0.106 2.886,0.058 4.316,-0.143 1.159,-0.163 2.302,-0.425 3.416,-0.785 l 5.448,0.34 c 1.785,0.122 3.512,-0.662 4.597,-2.085 0.391,-0.513 0.682,-1.096 1.081,-1.603 0.382,-0.485 0.856,-0.891 1.393,-1.195 0.752,0.183 1.544,0.085 2.23,-0.274 0.491,-0.257 0.905,-0.64 1.202,-1.109 0.14,-0.9 0.487,-1.756 1.015,-2.499 0.419,-0.592 0.945,-1.1 1.55,-1.499 0.831,-0.032 1.616,-0.39 2.184,-0.998 0.485,-0.52 0.779,-1.19 0.833,-1.899 -0.036,-1.103 0.165,-2.201 0.589,-3.22 0.453,-1.09 1.15,-2.063 2.037,-2.843 0.715,-0.154 1.379,-0.488 1.929,-0.97 0.468,-0.41 0.841,-0.916 1.094,-1.484 0.602,-1.705 0.887,-3.505 0.841,-5.313 -0.038,-1.509 -0.308,-3.004 -0.799,-4.432 0.061,-0.979 -0.058,-1.961 -0.35,-2.897 -0.326,-1.041 -0.861,-2.005 -1.571,-2.833 -0.637,-0.381 -1.224,-0.84 -1.748,-1.366 -0.558,-0.56 -1.04,-1.192 -1.433,-1.878 0.127,-1.076 0.093,-2.163 -0.1,-3.229 -0.204,-1.128 -0.584,-2.218 -1.127,-3.228 -0.873,-0.9 -1.893,-1.644 -3.017,-2.201 -1.148,-0.568 -2.387,-0.932 -3.66,-1.075 -1.203,-0.374 -2.317,-0.99 -3.275,-1.809 -1.14,-0.977 -2.026,-2.214 -2.583,-3.608 -0.507,-1.252 -1.38,-2.321 -2.504,-3.07 -1.195,-0.795 -2.613,-1.187 -4.047,-1.119 -1.205,0.28 -2.446,0.373 -3.679,0.277 -1.267,-0.099 -2.511,-0.396 -3.685,-0.882 -1.112,-0.363 -2.322,-0.285 -3.377,0.22 -0.969,0.463 -1.742,1.255 -2.182,2.234 -0.107,0.593 -0.348,1.154 -0.704,1.64 -0.427,0.581 -1.004,1.036 -1.669,1.314 -1.07,0.216 -2.161,0.31 -3.251,0.28 -0.969,-0.027 -1.932,-0.151 -2.876,-0.371 -1.456,0.377 -2.739,1.243 -3.633,2.453 -0.693,0.937 -1.121,2.043 -1.24,3.201 0.06,0.808 0.071,1.618 0.031,2.426 -0.042,0.877 -0.143,1.751 -0.302,2.614 -0.636,1.376 -1.445,2.665 -2.406,3.836 -1.016,1.238 -2.195,2.333 -3.504,3.257 -0.623,1.088 -0.936,2.326 -0.905,3.579 0.029,1.146 0.346,2.267 0.922,3.258 0.233,0.633 0.35,1.303 0.346,1.978 -0.004,0.837 -0.194,1.664 -0.556,2.419 -0.691,0.956 -1.085,2.095 -1.131,3.274 -0.046,1.146 0.239,2.281 0.821,3.27 1.035,0.341 1.993,0.882 2.821,1.591 0.839,0.718 1.528,1.596 2.026,2.582 -0.384,1.161 -0.365,2.418 0.053,3.567 0.383,1.055 1.084,1.964 2.006,2.604 0.93,-0.141 1.881,0.003 2.727,0.415 0.814,0.396 1.495,1.022 1.957,1.8 0.124,1.076 0.414,2.127 0.861,3.113 0.44,0.972 1.026,1.87 1.739,2.664 0.908,0.044 1.817,0.08 2.726,0.106 0.652,0.019 1.305,0.033 1.957,0.042 0.675,0.353 1.375,0.657 2.093,0.91 C -1.667,-0.37 -0.84,-0.151 0,0 Z"
             style="fill:url(#radialGradient2505);fill-opacity:1;stroke:#110f0d;stroke-width:0.5;stroke-linecap:butt;stroke-linejoin:miter;stroke-miterlimit:4;stroke-dasharray:1, 1;stroke-dashoffset:0;stroke-opacity:1"
             id="path902" /></g><g
           id="g904"
           transform="translate(104.3845,803.6801)"><path
             d="m 0,0 c 15.225,-15.225 15.225,-39.91 0,-55.135 -15.225,-15.226 -39.91,-15.226 -55.135,0 -15.226,15.225 -15.226,39.91 0,55.135 C -39.91,15.225 -15.225,15.225 0,0 Z"
             style="fill:none;stroke:#110f0d;stroke-width:0.25;stroke-linecap:butt;stroke-linejoin:miter;stroke-miterlimit:4;stroke-dasharray:none;stroke-opacity:1"
             id="path906" /></g></g></g><text
       transform="matrix(1,0,0,-1,61.9858,773.3394)"
       style="font-variant:normal;font-weight:bold;font-stretch:normal;font-size:7.4427px;font-family:'Helvetica 55 Roman';-inkscape-font-specification:HelveticaNeue-Bold;writing-mode:lr-tb;fill:#110f0d;fill-opacity:1;fill-rule:nonzero;stroke:none"
       id="text910"><tspan
         x="0"
         y="0"
         id="tspan908">B</tspan></text><g
       id="g912"><g
         id="g914"
         clip-path="url(#clipPath918)"><g
           id="g920"
           transform="translate(200.5197,803.6801)"><path
             d="m 0,0 c 15.225,-15.225 15.225,-39.91 0,-55.135 -15.225,-15.226 -39.91,-15.226 -55.135,0 -15.226,15.225 -15.226,39.91 0,55.135 C -39.91,15.225 -15.225,15.225 0,0 Z"
             style="fill:none;stroke:#110f0d;stroke-width:0.25;stroke-linecap:butt;stroke-linejoin:miter;stroke-miterlimit:4;stroke-dasharray:none;stroke-opacity:1"
             id="path922" /></g></g></g><text
       transform="matrix(1,0,0,-1,158.1216,773.3394)"
       style="font-variant:normal;font-weight:bold;font-stretch:normal;font-size:7.4427px;font-family:'Helvetica 55 Roman';-inkscape-font-specification:HelveticaNeue-Bold;writing-mode:lr-tb;fill:#110f0d;fill-opacity:1;fill-rule:nonzero;stroke:none"
       id="text926"><tspan
         x="0"
         y="0"
         id="tspan924">B</tspan></text><g
       id="g928"><g
         id="g930"
         clip-path="url(#clipPath934)"><g
           id="g936"
           transform="translate(187.3724,755.5276)"><path
             d="M 0,0 -3.988,4.389 -4.066,4.474"
             style="fill:none;stroke:#110f0d;stroke-width:0.25;stroke-linecap:butt;stroke-linejoin:miter;stroke-miterlimit:4;stroke-dasharray:none;stroke-opacity:1"
             id="path938" /></g><g
           id="g940"
           transform="translate(184.0742,760.5496)"><path
             d="m 0,0 -1.974,0.658 0.658,-1.974 z"
             style="fill:#110f0d;fill-opacity:1;fill-rule:nonzero;stroke:none"
             id="path942" /></g><g
           id="g944"
           transform="translate(146.5479,795.2352)"><path
             d="m 0,0 6.079,-6.079 0.11,-0.11"
             style="fill:none;stroke:#110f0d;stroke-width:0.25;stroke-linecap:butt;stroke-linejoin:miter;stroke-miterlimit:4;stroke-dasharray:none;stroke-opacity:1"
             id="path946" /></g><g
           id="g948"
           transform="translate(151.969,788.4984)"><path
             d="M 0,0 1.974,-0.658 1.316,1.316 Z"
             style="fill:#110f0d;fill-opacity:1;fill-rule:nonzero;stroke:none"
             id="path950" /></g><g
           id="g952"
           transform="translate(186.1741,796.4894)"><path
             d="M 0,0 -6.415,-6.673 -6.523,-6.785"
             style="fill:none;stroke:#110f0d;stroke-width:0.25;stroke-linecap:butt;stroke-linejoin:miter;stroke-miterlimit:4;stroke-dasharray:none;stroke-opacity:1"
             id="path954" /></g><g
           id="g956"
           transform="translate(179.0881,790.4608)"><path
             d="m 0,0 -0.619,-1.986 1.96,0.697 z"
             style="fill:#110f0d;fill-opacity:1;fill-rule:nonzero;stroke:none"
             id="path958" /></g><g
           id="g960"
           transform="translate(144.5018,756.9093)"><path
             d="M 0,0 6.632,6.632 6.741,6.741"
             style="fill:none;stroke:#110f0d;stroke-width:0.25;stroke-linecap:butt;stroke-linejoin:miter;stroke-miterlimit:4;stroke-dasharray:none;stroke-opacity:1"
             id="path962" /></g><g
           id="g964"
           transform="translate(151.7914,762.8832)"><path
             d="M 0,0 0.658,1.974 -1.316,1.316 Z"
             style="fill:#110f0d;fill-opacity:1;fill-rule:nonzero;stroke:none"
             id="path966" /></g><g
           id="g968"
           transform="translate(65.6273,805.1702)"><path
             d="m 0,0 c 1.44,0.106 2.886,0.058 4.316,-0.143 1.159,-0.163 2.302,-0.425 3.416,-0.785 l 5.448,0.34 c 1.785,0.122 3.512,-0.662 4.597,-2.085 0.391,-0.513 0.682,-1.096 1.081,-1.603 0.382,-0.485 0.856,-0.891 1.393,-1.195 0.752,0.183 1.544,0.085 2.23,-0.274 0.491,-0.257 0.905,-0.64 1.202,-1.109 0.14,-0.9 0.487,-1.756 1.015,-2.499 0.419,-0.592 0.945,-1.1 1.55,-1.499 0.831,-0.032 1.616,-0.39 2.184,-0.998 0.485,-0.52 0.779,-1.19 0.833,-1.899 -0.036,-1.103 0.165,-2.201 0.589,-3.22 0.453,-1.09 1.15,-2.063 2.037,-2.843 0.715,-0.154 1.379,-0.488 1.929,-0.97 0.467,-0.41 0.841,-0.916 1.094,-1.484 0.602,-1.705 0.887,-3.505 0.841,-5.313 -0.038,-1.509 -0.308,-3.004 -0.799,-4.432 0.061,-0.979 -0.058,-1.961 -0.35,-2.897 -0.326,-1.041 -0.861,-2.005 -1.571,-2.833 -0.637,-0.381 -1.224,-0.84 -1.748,-1.366 -0.558,-0.56 -1.04,-1.192 -1.433,-1.878 0.127,-1.076 0.093,-2.163 -0.1,-3.229 -0.204,-1.128 -0.584,-2.218 -1.127,-3.228 -0.873,-0.9 -1.893,-1.644 -3.017,-2.201 -1.148,-0.568 -2.387,-0.932 -3.66,-1.075 -1.203,-0.374 -2.317,-0.99 -3.275,-1.809 -1.14,-0.977 -2.026,-2.214 -2.583,-3.608 -0.507,-1.252 -1.38,-2.321 -2.504,-3.07 -1.195,-0.795 -2.613,-1.187 -4.047,-1.119 -1.205,0.28 -2.446,0.373 -3.679,0.277 -1.267,-0.099 -2.511,-0.396 -3.685,-0.882 -1.112,-0.363 -2.322,-0.285 -3.377,0.22 -0.969,0.463 -1.742,1.255 -2.182,2.234 -0.107,0.593 -0.348,1.154 -0.704,1.64 -0.427,0.581 -1.004,1.036 -1.669,1.314 -1.07,0.216 -2.161,0.31 -3.251,0.28 -0.969,-0.027 -1.932,-0.151 -2.876,-0.371 -1.456,0.377 -2.739,1.243 -3.633,2.453 -0.693,0.937 -1.121,2.043 -1.24,3.201 0.06,0.808 0.071,1.618 0.031,2.426 -0.042,0.877 -0.143,1.751 -0.302,2.614 -0.636,1.376 -1.445,2.665 -2.406,3.836 -1.016,1.238 -2.195,2.333 -3.504,3.257 -0.623,1.088 -0.936,2.326 -0.905,3.579 0.029,1.146 0.346,2.267 0.922,3.258 0.233,0.633 0.35,1.303 0.346,1.978 -0.004,0.837 -0.194,1.664 -0.556,2.419 -0.691,0.956 -1.085,2.095 -1.131,3.274 -0.046,1.146 0.239,2.281 0.821,3.27 1.035,0.341 1.993,0.882 2.821,1.591 0.839,0.718 1.528,1.596 2.026,2.582 -0.384,1.161 -0.365,2.418 0.053,3.567 0.383,1.055 1.084,1.964 2.006,2.604 0.93,-0.141 1.881,0.003 2.727,0.415 0.814,0.396 1.495,1.022 1.957,1.8 0.124,1.076 0.414,2.127 0.861,3.113 0.44,0.972 1.026,1.87 1.739,2.664 0.908,0.035 1.817,0.07 2.726,0.106 0.631,0.025 1.262,0.049 1.893,0.074 0.701,0.336 1.421,0.63 2.157,0.878 C -1.664,-0.38 -0.838,-0.162 0,0 Z"
             style="fill:none;stroke:#110f0d;stroke-width:1;stroke-linecap:butt;stroke-linejoin:miter;stroke-miterlimit:4;stroke-dasharray:none;stroke-opacity:1"
             id="path970" /></g><g
           id="g972"
           transform="translate(171.8478,792.4107)"><path
             d="M 0,0 3.434,-1.227 5.946,-3.721 8,-4.632 l 3.979,-2.613 1.093,-2.961 1.348,-3.811 -0.565,-4.441 -1.008,-5.145 -1.386,-2.55 -0.692,-3.211 -1.134,-3.275 -3.086,-2.988 -3.716,-0.216 -4.013,-2.596 c -0.359,-0.517 -0.804,-0.969 -1.316,-1.337 -0.588,-0.423 -1.253,-0.727 -1.958,-0.896 -0.502,0.117 -0.983,0.309 -1.428,0.569 -0.58,0.34 -1.088,0.79 -1.494,1.325 l -3.962,1.649 -3.103,3.205 -2.257,2.055 -1.967,1.059 -1.158,6.794 -1.414,3.883 0.788,4.333 -0.076,6.269 2.087,3.851 1.509,2.439 c 0.557,0.983 1.239,1.889 2.029,2.696 0.894,0.914 1.918,1.693 3.037,2.311 0.885,0.195 1.792,0.269 2.696,0.219 C -8.294,1.936 -7.43,1.772 -6.6,1.498 l 4.201,-0.222 z"
             style="fill:none;stroke:#110f0d;stroke-width:1;stroke-linecap:butt;stroke-linejoin:miter;stroke-miterlimit:4;stroke-dasharray:none;stroke-opacity:1"
             id="path974" /></g><g
           id="g976"
           transform="translate(296.6548,803.6801)"><path
             d="m 0,0 c 15.225,-15.225 15.225,-39.91 0,-55.135 -15.225,-15.226 -39.91,-15.226 -55.135,0 -15.226,15.225 -15.226,39.91 0,55.135 C -39.91,15.225 -15.225,15.225 0,0 Z"
             style="fill:none;stroke:#110f0d;stroke-width:0.25;stroke-linecap:butt;stroke-linejoin:miter;stroke-miterlimit:4;stroke-dasharray:none;stroke-opacity:1"
             id="path978" /></g></g></g><text
       transform="matrix(1,0,0,-1,254.2563,773.3394)"
       style="font-variant:normal;font-weight:bold;font-stretch:normal;font-size:7.4427px;font-family:'Helvetica 55 Roman';-inkscape-font-specification:HelveticaNeue-Bold;writing-mode:lr-tb;fill:#110f0d;fill-opacity:1;fill-rule:nonzero;stroke:none"
       id="text982"><tspan
         x="0"
         y="0"
         id="tspan980">B</tspan></text><g
       id="g984"><g
         id="g986"
         clip-path="url(#clipPath990)"><g
           id="g992"
           transform="translate(250.7553,785.6542)"><path
             d="m 0,0 1.605,1.83 2.32,2.46 2.889,0.13 2.632,-0.821 2.728,0.56 2.183,-1.669 3.394,-1.222 1.509,-2.518 3.596,-3.492 -0.186,-2.268 1.352,-3.09 -0.725,-2.298 -0.628,-3.589 -1.353,-2.078 -1.434,-1.942 -0.472,-1.795 -0.598,-1.921 -2.551,-1.787 -4.913,0.334 -4.032,1.061 -2.488,1.67 -0.63,1.027 -2.173,2.119 c -0.53,0.214 -1.014,0.527 -1.428,0.921 -0.491,0.469 -0.872,1.043 -1.113,1.678 -0.027,0.455 -0.048,0.909 -0.065,1.364 -0.018,0.519 -0.029,1.038 -0.033,1.557 l -1.374,1.894 -0.81,3.5 0.743,3.563 1.24,3.114 z"
             style="fill:none;stroke:#110f0d;stroke-width:1;stroke-linecap:butt;stroke-linejoin:miter;stroke-miterlimit:4;stroke-dasharray:none;stroke-opacity:1"
             id="path994" /></g><g
           id="g996"
           transform="translate(392.7899,803.6801)"><path
             d="m 0,0 c 15.225,-15.225 15.225,-39.91 0,-55.135 -15.225,-15.226 -39.91,-15.226 -55.135,0 -15.226,15.225 -15.226,39.91 0,55.135 C -39.91,15.225 -15.225,15.225 0,0 Z"
             style="fill:none;stroke:#110f0d;stroke-width:0.25;stroke-linecap:butt;stroke-linejoin:miter;stroke-miterlimit:4;stroke-dasharray:none;stroke-opacity:1"
             id="path998" /></g></g></g><text
       transform="matrix(1,0,0,-1,347.4282,773.3057)"
       style="font-variant:normal;font-weight:normal;font-stretch:normal;font-size:7.4427px;font-family:HelveticaNeue;-inkscape-font-specification:HelveticaNeue;writing-mode:lr-tb;fill:#110f0d;fill-opacity:1;fill-rule:nonzero;stroke:none"
       id="text1002"><tspan
         x="0"
         y="0"
         id="tspan1000">A</tspan></text><g
       id="g1004"><g
         id="g1006"><g
           id="g1012"><g
             id="g1014"><path
               d="m 350.816,789.944 -2.321,-2.46 -1.604,-1.83 -0.816,-1.707 -1.24,-3.114 -0.743,-3.564 0.81,-3.499 1.374,-1.894 c 0.004,-0.519 0.015,-1.039 0.034,-1.557 v 0 c 0.016,-0.455 0.038,-0.91 0.065,-1.364 v 0 c 0.241,-0.636 0.621,-1.209 1.112,-1.678 v 0 c 0.414,-0.395 0.898,-0.707 1.429,-0.923 v 0 l 2.172,-2.118 0.63,-1.027 2.489,-1.67 4.031,-1.061 4.914,-0.334 2.55,1.787 0.598,1.922 0.473,1.794 1.433,1.942 1.354,2.078 0.628,3.589 0.724,2.298 -1.351,3.09 0.186,2.268 -3.596,3.492 -1.509,2.518 -3.395,1.221 -2.183,1.67 -2.727,-0.56 -2.633,0.821 z"
               style="fill:url(#radialGradient1020);stroke:none"
               id="path1022" /></g></g></g></g><g
       id="g1024"><g
         id="g1026"
         clip-path="url(#clipPath1030)"><g
           id="g1032"
           transform="translate(398.4975,772.5576)"><path
             d="M 0,0 C -0.27,-1.418 -0.689,-2.803 -1.252,-4.132 -1.709,-5.21 -2.258,-6.247 -2.893,-7.231 l -1.078,-5.35 c -0.343,-1.756 -1.546,-3.223 -3.201,-3.903 -0.596,-0.245 -1.235,-0.376 -1.827,-0.631 -0.568,-0.244 -1.082,-0.596 -1.515,-1.037 -0.018,-0.774 -0.316,-1.514 -0.84,-2.083 -0.376,-0.408 -0.852,-0.71 -1.381,-0.875 -0.907,0.097 -1.823,-0.018 -2.678,-0.336 -0.679,-0.252 -1.306,-0.629 -1.848,-1.111 -0.245,-0.794 -0.794,-1.46 -1.528,-1.852 -0.628,-0.334 -1.35,-0.445 -2.05,-0.314 -1.056,0.319 -2.168,0.408 -3.262,0.262 -1.171,-0.156 -2.29,-0.579 -3.273,-1.234 -0.333,-0.651 -0.827,-1.206 -1.435,-1.613 -0.516,-0.346 -1.102,-0.576 -1.716,-0.674 -1.802,-0.141 -3.616,0.048 -5.35,0.559 -1.448,0.427 -2.823,1.073 -4.076,1.916 -0.961,0.194 -1.879,0.562 -2.708,1.087 -0.921,0.583 -1.715,1.349 -2.332,2.249 -0.203,0.713 -0.495,1.399 -0.867,2.041 -0.397,0.684 -0.883,1.313 -1.445,1.87 -1.072,0.155 -2.114,0.468 -3.094,0.929 -1.037,0.489 -1.991,1.138 -2.828,1.922 -0.644,1.076 -1.099,2.254 -1.346,3.484 -0.253,1.256 -0.285,2.546 -0.094,3.813 -0.051,1.259 -0.358,2.495 -0.903,3.631 -0.649,1.353 -1.616,2.529 -2.818,3.427 -1.079,0.813 -1.887,1.933 -2.319,3.212 -0.46,1.36 -0.473,2.831 -0.037,4.199 0.581,1.091 0.992,2.266 1.217,3.482 0.232,1.25 0.266,2.528 0.1,3.788 -0.064,1.169 0.324,2.317 1.084,3.206 0.697,0.817 1.662,1.359 2.722,1.531 0.6,-0.05 1.204,0.038 1.766,0.257 0.672,0.262 1.259,0.702 1.7,1.273 0.485,0.978 0.857,2.007 1.11,3.069 0.224,0.942 0.353,1.905 0.384,2.874 0.74,1.31 1.908,2.325 3.308,2.877 1.084,0.426 2.263,0.555 3.413,0.371 0.764,-0.267 1.544,-0.486 2.335,-0.657 0.858,-0.185 1.728,-0.313 2.604,-0.383 1.493,0.26 2.947,0.708 4.326,1.335 1.459,0.662 2.821,1.518 4.052,2.543 1.212,0.322 2.488,0.305 3.691,-0.049 1.1,-0.324 2.101,-0.919 2.91,-1.732 0.552,-0.388 1.168,-0.674 1.821,-0.845 0.81,-0.212 1.657,-0.242 2.481,-0.087 1.102,0.421 2.304,0.507 3.455,0.248 1.119,-0.252 2.142,-0.821 2.947,-1.638 0.063,-1.088 0.337,-2.153 0.808,-3.136 0.478,-0.997 1.148,-1.888 1.972,-2.624 1.221,0.071 2.43,-0.272 3.433,-0.972 0.919,-0.643 1.617,-1.555 1.998,-2.61 -0.377,-0.862 -0.483,-1.819 -0.304,-2.742 0.173,-0.889 0.602,-1.708 1.234,-2.356 1.064,-0.273 2.029,-0.839 2.785,-1.635 0.693,-0.728 1.186,-1.623 1.432,-2.598 C 0.191,8.345 0.222,7.527 0.134,6.716 0.065,6.086 -0.075,5.466 -0.284,4.868 -0.14,4.104 -0.042,3.333 0.007,2.557 0.062,1.706 0.06,0.851 0,0 Z"
             style="fill:none;stroke:#ed2123;stroke-width:0.5;stroke-linecap:butt;stroke-linejoin:miter;stroke-miterlimit:4;stroke-dasharray:1, 1;stroke-dashoffset:0;stroke-opacity:1"
             id="path1034" /></g></g></g><text
       transform="matrix(1,0,0,-1,381.1772,773.3394)"
       style="font-variant:normal;font-weight:bold;font-stretch:normal;font-size:7.4427px;font-family:'Helvetica 55 Roman';-inkscape-font-specification:HelveticaNeue-Bold;writing-mode:lr-tb;fill:#ed2123;fill-opacity:1;fill-rule:nonzero;stroke:none"
       id="text1038"><tspan
         x="0"
         y="0"
         id="tspan1036">A</tspan></text><g
       id="g1040"><g
         id="g1042"
         clip-path="url(#clipPath1046)"><g
           id="g1048"
           transform="translate(398.4972,772.5568)"><path
             d="M 0,0 C -0.27,-1.418 -0.689,-2.803 -1.252,-4.132 -1.709,-5.21 -2.258,-6.247 -2.893,-7.231 l -1.078,-5.35 c -0.343,-1.756 -1.546,-3.223 -3.201,-3.903 -0.596,-0.245 -1.235,-0.376 -1.827,-0.631 -0.568,-0.244 -1.082,-0.596 -1.515,-1.037 -0.018,-0.774 -0.316,-1.514 -0.84,-2.083 -0.376,-0.408 -0.852,-0.71 -1.381,-0.875 -0.907,0.097 -1.823,-0.018 -2.678,-0.336 -0.679,-0.252 -1.306,-0.629 -1.848,-1.111 -0.245,-0.794 -0.794,-1.46 -1.528,-1.852 -0.628,-0.334 -1.35,-0.445 -2.05,-0.314 -1.056,0.319 -2.168,0.408 -3.262,0.262 -1.171,-0.156 -2.29,-0.578 -3.273,-1.234 -0.333,-0.651 -0.827,-1.206 -1.435,-1.613 -0.516,-0.346 -1.102,-0.576 -1.716,-0.674 -1.802,-0.141 -3.616,0.048 -5.35,0.559 -1.448,0.427 -2.823,1.073 -4.076,1.916 -0.961,0.194 -1.879,0.562 -2.708,1.087 -0.921,0.584 -1.715,1.349 -2.332,2.249 -0.203,0.713 -0.495,1.399 -0.867,2.041 -0.397,0.684 -0.883,1.313 -1.445,1.87 -0.257,0.471 -0.548,0.922 -0.871,1.351 -0.323,0.429 -0.682,0.839 -0.904,1.329 -0.353,0.778 -0.335,1.651 -0.102,2.469 0.219,0.769 0.628,1.498 1.279,2.01 1.207,0.95 3.602312,2.2579573 4.802312,1.3099573 l 1.498732,0.4775598 c 1.348,0.194 1.987992,0.1708712 3.198992,0.6948712 1.417,0.615 1.080517,0.8464228 1.970517,2.1794228 0.859,1.287 2.127678,0.7433202 2.790678,2.1113202 0.685,1.412 0.142241,3.1252948 0.431241,4.69829481 0.503,2.73599999 1.018118,2.15054809 0.618118,4.85554809 -0.1,0.672 -0.387158,2.1804993 -0.643158,2.8124993 -0.309,0.764 0.13091,2.1526535 -0.46309,2.7206535 -1.097,1.049 -1.127468,2.564738 -1.983468,3.817738 -0.841686,0.544316 -2.593127,1.702501 -3.753074,2.679335 -1.531527,1.289755 -4.256715,2.195985 -3.97277,3.488819 -2.26226,1.932985 -0.119884,4.855959 1.456896,5.214605 0.848,0.649 3.703652,1.412926 4.738652,1.674926 1.127,0.284 5.449722,4.51225 6.589722,4.28925 0.753306,0.0147 2.394247,0.418429 3.691,-0.049 1.26127,-0.454639 2.178785,-1.781306 2.91,-1.732 0.994075,0.06679 0.493665,-0.784531 1.821,-0.845 1.547273,-0.07049 4.921965,0.614248 5.936,0.161 0.896819,-0.400855 2.583781,-0.347025 2.947,-1.638 0.234725,-0.834273 0.206766,-2.850043 0.808,-3.136 1.185968,-0.564066 1.0927,-1.6498 1.9717,-2.6248 1.221,0.071 2.43,-0.272 3.433,-0.972 0.919,-0.643 1.617,-1.555 1.998,-2.61 -0.377,-0.862 -0.483,-1.819 -0.304,-2.742 0.172,-0.889 0.602,-1.708 1.234,-2.356 1.065,-0.268 2.032,-0.836 2.785,-1.635 0.733,-0.777 1.236,-1.742 1.453,-2.787 C 0.215,8.221 0.221,7.463 0.134,6.716 0.06,6.087 -0.08,5.468 -0.284,4.868 -0.14,4.104 -0.042,3.333 0.007,2.557 0.062,1.706 0.06,0.851 0,0 Z"
             style="fill:none;stroke:#ed2123;stroke-width:1;stroke-linecap:butt;stroke-linejoin:miter;stroke-miterlimit:4;stroke-dasharray:none;stroke-opacity:1"
             id="path1050"
             sodipodi:nodetypes="cccccccccccccccccccccccscscccccccccscsccccscssssccccccccccc" /><path
             d="m 126.97564,0 c -0.27,-1.418 -0.689,-2.803 -1.252,-4.132 -0.457,-1.078 -1.006,-2.115 -1.641,-3.099 l -1.078,-5.35 c -0.343,-1.756 -1.546,-3.223 -3.201,-3.903 -0.596,-0.245 -1.235,-0.376 -1.827,-0.631 -0.568,-0.244 -1.082,-0.596 -1.515,-1.037 -0.018,-0.774 -0.316,-1.514 -0.84,-2.083 -0.376,-0.408 -0.852,-0.71 -1.381,-0.875 -0.907,0.097 -1.823,-0.018 -2.678,-0.336 -0.679,-0.252 -1.306,-0.629 -1.848,-1.111 -0.245,-0.794 -0.794,-1.46 -1.528,-1.852 -0.628,-0.334 -1.35,-0.445 -2.05,-0.314 -1.056,0.319 -2.168,0.408 -3.262,0.262 -1.171,-0.156 -2.29,-0.578 -3.272996,-1.234 -1.557293,-0.09046 -3.754382,-1.807929 -3.52868,3.568237 -0.397,0.684 -0.883,1.313 -1.445,1.87 -0.257,0.471 -0.548,0.922 -0.871,1.351 -0.323,0.429 -0.682,0.839 -0.904,1.329 -0.353,0.778 -0.335,1.651 -0.102,2.469 0.219,0.769 0.628,1.498 1.279,2.01 2.079821,0.914258 0.0018,2.048386 1.283188,3.5372689 0.685,1.412 0.142241,3.1252948 0.431241,4.6982949 0.503,2.7359999 1.018118,2.150548 0.618118,4.85554804 -0.1,0.672 -0.387158,2.18049926 -0.643158,2.81249926 -0.309,0.764 1.758087,0.4056708 2.017477,1.7470434 0.288175,1.4902233 1.337287,3.3070333 0.481287,4.5600333 -0.245601,2.3128032 2.387333,0.1527075 1.803853,2.4044912 0.211,0.963 0.687,1.847 1.373,2.555 0.848,0.649 1.819,1.119 2.854,1.381 1.127,0.284 2.69209,0.390435 3.83209,0.167435 1.486,0.029 2.3413,0.892189 3.8243,0.992189 2.36033,-0.270566 1.22396,0.01678 2.42129,1.732992 0.75141,1.077062 1.86388,2.367285 2.74288,1.392285 1.221,0.071 1.80011,2.049683 2.80311,1.349683 0.919,-0.643 1.617,-1.555 1.998,-2.61 -0.377,-0.862 -0.483,-1.819 -0.304,-2.742 0.172,-0.889 0.602,-1.708 1.234,-2.356 1.065,-0.268 2.032,-0.836 2.785,-1.635 0.733,-0.777 1.236,-1.742 1.453,-2.787 0.152,-0.737 0.158,-1.495 0.071,-2.242 -0.074,-0.629 -0.214,-1.248 -0.418,-1.848 0.144,-0.764 0.242,-1.535 0.291,-2.311 0.055,-0.851 0.053,-1.706 -0.007,-2.557 z"
             style="fill:none;stroke:#ed2123;stroke-width:0.99975;stroke-linecap:butt;stroke-linejoin:miter;stroke-miterlimit:4;stroke-dasharray:none;stroke-opacity:1"
             id="path109983"
             sodipodi:nodetypes="cccccccccccccccccscscccccsccccccsccccccccccc" /></g><g
           id="g1052"
           transform="translate(182.0147,753.7302)"><path
             d="M 0,0 -1.758,1.758 -1.82,1.82"
             style="fill:none;stroke:#110f0d;stroke-width:0.25;stroke-linecap:butt;stroke-linejoin:miter;stroke-miterlimit:4;stroke-dasharray:none;stroke-opacity:1"
             id="path1054" /></g><g
           id="g1056"
           transform="translate(180.9624,756.0983)"><path
             d="m 0,0 -1.974,0.658 0.658,-1.974 z"
             style="fill:#110f0d;fill-opacity:1;fill-rule:nonzero;stroke:none"
             id="path1058" /></g><g
           id="g1060"
           transform="translate(191.214,759.408)"><path
             d="M 0,0 -6.189,6.189 -6.298,6.298"
             style="fill:none;stroke:#110f0d;stroke-width:0.25;stroke-linecap:butt;stroke-linejoin:miter;stroke-miterlimit:4;stroke-dasharray:none;stroke-opacity:1"
             id="path1062" /></g><g
           id="g1064"
           transform="translate(185.6833,766.2544)"><path
             d="m 0,0 -1.974,0.658 0.658,-1.974 z"
             style="fill:#110f0d;fill-opacity:1;fill-rule:nonzero;stroke:none"
             id="path1066" /></g><g
           id="g1068"
           transform="translate(181.7653,799.7281)"><path
             d="M 0,0 -6.682,-6.682 -6.791,-6.791"
             style="fill:none;stroke:#110f0d;stroke-width:0.25;stroke-linecap:butt;stroke-linejoin:miter;stroke-miterlimit:4;stroke-dasharray:none;stroke-opacity:1"
             id="path1070" /></g><g
           id="g1072"
           transform="translate(174.4258,793.7043)"><path
             d="m 0,0 -0.658,-1.974 1.974,0.658 z"
             style="fill:#110f0d;fill-opacity:1;fill-rule:nonzero;stroke:none"
             id="path1074" /></g><g
           id="g1076"
           transform="translate(190.484,793.1558)"><path
             d="m 0,0 -6.079,-6.079 -0.11,-0.11"
             style="fill:none;stroke:#110f0d;stroke-width:0.25;stroke-linecap:butt;stroke-linejoin:miter;stroke-miterlimit:4;stroke-dasharray:none;stroke-opacity:1"
             id="path1078" /></g><g
           id="g1080"
           transform="translate(183.7472,787.7347)"><path
             d="m 0,0 -0.658,-1.974 1.974,0.658 z"
             style="fill:#110f0d;fill-opacity:1;fill-rule:nonzero;stroke:none"
             id="path1082" /></g><g
           id="g1084"
           transform="translate(150.5181,800.047)"><path
             d="m 0,0 6.079,-6.079 0.11,-0.11"
             style="fill:none;stroke:#110f0d;stroke-width:0.25;stroke-linecap:butt;stroke-linejoin:miter;stroke-miterlimit:4;stroke-dasharray:none;stroke-opacity:1"
             id="path1086" /></g><g
           id="g1088"
           transform="translate(155.9392,793.3102)"><path
             d="M 0,0 1.974,-0.658 1.316,1.316 Z"
             style="fill:#110f0d;fill-opacity:1;fill-rule:nonzero;stroke:none"
             id="path1090" /></g><g
           id="g1092"
           transform="translate(143.5715,790.3762)"><path
             d="m 0,0 6.079,-6.079 0.11,-0.11"
             style="fill:none;stroke:#110f0d;stroke-width:0.25;stroke-linecap:butt;stroke-linejoin:miter;stroke-miterlimit:4;stroke-dasharray:none;stroke-opacity:1"
             id="path1094" /></g><g
           id="g1096"
           transform="translate(148.9925,783.6394)"><path
             d="M 0,0 1.974,-0.658 1.316,1.316 Z"
             style="fill:#110f0d;fill-opacity:1;fill-rule:nonzero;stroke:none"
             id="path1098" /></g><g
           id="g1100"
           transform="translate(145.6573,751.277)"><path
             d="M 0,0 7.86,7.86 7.97,7.97"
             style="fill:none;stroke:#110f0d;stroke-width:0.25;stroke-linecap:butt;stroke-linejoin:miter;stroke-miterlimit:4;stroke-dasharray:none;stroke-opacity:1"
             id="path1102" /></g><g
           id="g1104"
           transform="translate(154.1752,758.4792)"><path
             d="M 0,0 0.658,1.974 -1.316,1.316 Z"
             style="fill:#110f0d;fill-opacity:1;fill-rule:nonzero;stroke:none"
             id="path1106" /></g><g
           id="g1108"
           transform="translate(150.5518,749.2945)"><path
             d="M 0,0 6.632,6.632 6.741,6.741"
             style="fill:none;stroke:#110f0d;stroke-width:0.25;stroke-linecap:butt;stroke-linejoin:miter;stroke-miterlimit:4;stroke-dasharray:none;stroke-opacity:1"
             id="path1110" /></g><g
           id="g1112"
           transform="translate(157.8414,755.2683)"><path
             d="M 0,0 0.658,1.974 -1.316,1.316 Z"
             style="fill:#110f0d;fill-opacity:1;fill-rule:nonzero;stroke:none"
             id="path1114" /></g><g
           id="g1116"
           transform="translate(519.9364,803.6801)"><path
             d="m 0,0 c 15.225,-15.225 15.225,-39.91 0,-55.135 -15.225,-15.226 -39.91,-15.226 -55.135,0 -15.226,15.225 -15.226,39.91 0,55.135 C -39.91,15.225 -15.225,15.225 0,0 Z"
             style="fill:none;stroke:#110f0d;stroke-width:0.25;stroke-linecap:butt;stroke-linejoin:miter;stroke-miterlimit:4;stroke-dasharray:none;stroke-opacity:1"
             id="path1118" /></g><g
           id="g1120"
           transform="translate(525.644,772.5576)"><path
             d="M 0,0 C -0.27,-1.418 -0.689,-2.803 -1.252,-4.132 -1.709,-5.21 -2.258,-6.247 -2.893,-7.231 l -1.078,-5.35 c -0.343,-1.756 -1.546,-3.223 -3.201,-3.903 -0.596,-0.245 -1.235,-0.376 -1.827,-0.631 -0.568,-0.244 -1.082,-0.596 -1.515,-1.037 -0.018,-0.774 -0.316,-1.514 -0.84,-2.083 -0.375,-0.408 -0.852,-0.71 -1.381,-0.875 -0.907,0.097 -1.823,-0.018 -2.678,-0.336 -0.679,-0.252 -1.306,-0.629 -1.848,-1.111 -0.245,-0.794 -0.794,-1.46 -1.528,-1.852 -0.628,-0.334 -1.35,-0.445 -2.05,-0.314 -1.056,0.319 -2.168,0.408 -3.262,0.262 -1.171,-0.156 -2.29,-0.579 -3.272,-1.234 -0.334,-0.651 -0.828,-1.206 -1.436,-1.613 -0.516,-0.346 -1.102,-0.576 -1.716,-0.674 -1.802,-0.141 -3.616,0.048 -5.35,0.559 -1.448,0.427 -2.823,1.073 -4.076,1.916 -0.961,0.194 -1.879,0.562 -2.707,1.087 -0.922,0.583 -1.716,1.349 -2.333,2.249 -0.203,0.713 -0.495,1.399 -0.867,2.041 -0.397,0.684 -0.883,1.313 -1.445,1.87 -1.072,0.155 -2.114,0.468 -3.094,0.929 -1.037,0.489 -1.991,1.138 -2.828,1.922 -0.644,1.076 -1.099,2.254 -1.346,3.484 -0.253,1.256 -0.285,2.546 -0.094,3.813 -0.051,1.259 -0.358,2.495 -0.903,3.631 -0.649,1.353 -1.616,2.529 -2.818,3.427 -1.079,0.813 -1.887,1.933 -2.319,3.212 -0.46,1.36 -0.473,2.831 -0.037,4.199 0.581,1.091 0.992,2.266 1.217,3.482 0.232,1.25 0.266,2.528 0.1,3.788 -0.064,1.169 0.324,2.317 1.084,3.206 0.697,0.817 1.662,1.359 2.722,1.531 0.6,-0.05 1.204,0.038 1.766,0.257 0.672,0.262 1.259,0.702 1.7,1.273 0.485,0.978 0.857,2.007 1.11,3.069 0.224,0.942 0.353,1.905 0.384,2.874 0.74,1.31 1.908,2.325 3.308,2.877 1.084,0.426 2.263,0.555 3.413,0.371 0.764,-0.267 1.544,-0.486 2.335,-0.657 0.858,-0.185 1.728,-0.313 2.604,-0.383 1.493,0.26 2.947,0.708 4.326,1.335 1.459,0.662 2.821,1.518 4.052,2.543 1.212,0.322 2.488,0.305 3.691,-0.049 1.1,-0.324 2.101,-0.919 2.91,-1.732 0.552,-0.388 1.168,-0.674 1.821,-0.845 0.81,-0.212 1.657,-0.242 2.481,-0.087 1.102,0.421 2.304,0.507 3.455,0.248 1.119,-0.252 2.142,-0.821 2.947,-1.638 0.063,-1.088 0.337,-2.153 0.808,-3.136 0.478,-0.997 1.148,-1.888 1.972,-2.624 1.221,0.071 2.43,-0.272 3.433,-0.972 0.919,-0.643 1.617,-1.555 1.998,-2.61 -0.377,-0.862 -0.483,-1.819 -0.304,-2.742 0.173,-0.889 0.602,-1.708 1.234,-2.356 1.064,-0.273 2.029,-0.839 2.785,-1.635 0.693,-0.728 1.186,-1.623 1.432,-2.598 C 0.191,8.345 0.222,7.527 0.134,6.716 0.065,6.086 -0.075,5.466 -0.284,4.868 -0.14,4.104 -0.042,3.333 0.008,2.557 0.062,1.706 0.06,0.851 0,0 Z"
             style="fill:none;stroke:#ed2123;stroke-width:0.5;stroke-linecap:butt;stroke-linejoin:miter;stroke-miterlimit:4;stroke-dasharray:1, 1;stroke-dashoffset:0;stroke-opacity:1"
             id="path1122" /></g></g></g><text
       transform="matrix(1,0,0,-1,508.3237,773.3394)"
       style="font-variant:normal;font-weight:bold;font-stretch:normal;font-size:7.4427px;font-family:'Helvetica 55 Roman';-inkscape-font-specification:HelveticaNeue-Bold;writing-mode:lr-tb;fill:#ed2123;fill-opacity:1;fill-rule:nonzero;stroke:none"
       id="text1126"><tspan
         x="0"
         y="0"
         id="tspan1124">A</tspan></text><g
       id="g1128"><g
         id="g1130"
         clip-path="url(#clipPath1134)"><g
           id="g1136"
           transform="translate(505.2261,783.6652)" /><g
           id="g1140"
           transform="translate(122.8915,773.5709)"><path
             d="M 0,0 V -4.84 L 9.11,2.278 0,9.395 V 4.555 H -5.125 V 0 Z"
             style="fill:#110f0d;fill-opacity:1;fill-rule:nonzero;stroke:none"
             id="path1142" /></g><g
           id="g1144"
           transform="translate(219.293,773.8348)"><path
             d="M 0,0 V -4.84 L 9.11,2.278 0,9.395 V 4.555 H -5.124 V 0 Z"
             style="fill:#110f0d;fill-opacity:1;fill-rule:nonzero;stroke:none"
             id="path1146" /></g><g
           id="g1148"
           transform="translate(315.6945,772.8291)"><path
             d="M 0,0 V -4.84 L 9.11,2.278 0,9.395 V 4.555 H -5.124 V 0 Z"
             style="fill:#110f0d;fill-opacity:1;fill-rule:nonzero;stroke:none"
             id="path1150" /></g><g
           id="g1152"
           transform="translate(65.6845,711.788)"><path
             d="M 0,0 0.858,0.626 2.099,1.467 3.644,1.511 5.052,1.231 6.51,1.422 7.678,0.851 9.493,0.434 10.3,-0.428 12.223,-1.622 12.124,-2.397 12.847,-3.454 12.459,-4.24 12.123,-5.468 11.4,-6.178 10.633,-6.842 10.38,-7.456 10.061,-8.114 8.696,-8.725 6.069,-8.61 3.913,-8.248 2.582,-7.676 2.245,-7.325 1.083,-6.601 C 0.8,-6.527 0.541,-6.42 0.319,-6.285 c -0.263,0.16 -0.466,0.356 -0.595,0.574 -0.014,0.155 -0.026,0.311 -0.034,0.466 -0.01,0.178 -0.016,0.355 -0.018,0.533 l -0.735,0.647 -0.433,1.197 0.397,1.219 0.663,1.065 z"
             style="fill:none;stroke:#110f0d;stroke-width:1;stroke-linecap:butt;stroke-linejoin:miter;stroke-miterlimit:4;stroke-dasharray:none;stroke-opacity:1"
             id="path1154" /></g></g></g><g
       id="g1160"
       transform="translate(1.3780289)"><g
         id="g1162"><g
           id="g1168"><g
             id="g1170"><path
               d="m 190.217,712.202 c -0.429,0 -0.851,-0.053 -1.222,-0.15 v 0 c -0.137,-0.187 -0.356,-0.36 -0.643,-0.51 v 0 c -0.291,-0.151 -0.646,-0.276 -1.046,-0.366 v 0 c -0.47,0.069 -0.978,0.065 -1.443,-0.01 v 0 c -0.427,-0.07 -0.795,-0.197 -1.054,-0.363 v 0 c 0.014,-0.042 0.021,-0.085 0.021,-0.127 v 0 c 0,-0.126 -0.064,-0.252 -0.19,-0.366 v 0 c -0.16,-0.148 -0.413,-0.271 -0.728,-0.355 v 0 c -0.435,-0.021 -0.861,-0.075 -1.26,-0.156 v 0 c -0.393,-0.079 -0.757,-0.185 -1.078,-0.314 v 0 c -0.018,-0.164 -0.032,-0.328 -0.043,-0.493 v 0 c -0.008,-0.118 -0.014,-0.236 -0.017,-0.354 v 0 c -0.143,-0.122 -0.267,-0.249 -0.368,-0.378 v 0 c -0.115,-0.146 -0.204,-0.297 -0.265,-0.448 v 0 c -0.014,-0.09 -0.022,-0.179 -0.022,-0.269 v 0 c 0,-0.172 0.027,-0.343 0.08,-0.512 v 0 c 0.065,-0.21 0.173,-0.417 0.317,-0.618 v 0 l -0.136,-0.986 c -0.003,-0.02 -0.005,-0.04 -0.006,-0.06 v 0 c -0.003,-0.302 0.309,-0.588 0.849,-0.771 v 0 c 0.208,-0.071 0.444,-0.124 0.649,-0.196 v 0 c 0.196,-0.069 0.361,-0.154 0.483,-0.252 v 0 c -0.025,-0.046 -0.037,-0.094 -0.036,-0.142 v 0 c 0.002,-0.091 0.052,-0.18 0.148,-0.262 v 0 c 0.104,-0.088 0.259,-0.164 0.448,-0.217 v 0 c 0.364,-0.025 0.711,-0.088 1.012,-0.183 v 0 c 0.24,-0.077 0.445,-0.171 0.607,-0.281 v 0 c 0.013,-0.15 0.158,-0.293 0.404,-0.395 v 0 c 0.211,-0.087 0.482,-0.141 0.769,-0.15 v 0 c 0.446,0.006 0.891,-0.031 1.303,-0.108 v 0 c 0.441,-0.082 0.835,-0.207 1.15,-0.368 v 0 c 0.063,-0.129 0.198,-0.249 0.393,-0.349 v 0 c 0.166,-0.084 0.371,-0.152 0.601,-0.198 v 0 c 0.69,-0.109 1.419,-0.16 2.151,-0.152 v 0 c 0.611,0.007 1.216,0.056 1.793,0.145 v 0 c 0.396,-0.012 0.794,0.01 1.173,0.063 v 0 c 0.421,0.059 0.812,0.156 1.147,0.284 v 0 c 0.154,0.116 0.34,0.222 0.552,0.316 v 0 c 0.227,0.101 0.484,0.188 0.761,0.259 v 0 c 0.435,-0.022 0.876,-0.016 1.307,0.018 v 0 c 0.457,0.037 0.898,0.107 1.306,0.205 v 0 c 0.365,0.157 0.666,0.342 0.891,0.545 v 0 c 0.231,0.208 0.378,0.432 0.436,0.663 v 0 c 0.151,0.217 0.401,0.419 0.733,0.592 v 0 c 0.395,0.207 0.895,0.367 1.459,0.468 v 0 c 0.507,0.091 0.94,0.249 1.243,0.452 v 0 c 0.296,0.199 0.455,0.433 0.456,0.672 v 0 c 0.001,0.021 -0.001,0.04 -0.003,0.061 v 0 c -0.085,0.164 -0.128,0.33 -0.127,0.498 v 0 c 0,0.056 0.005,0.111 0.015,0.167 v 0 c 0.04,0.23 0.161,0.455 0.357,0.667 v 0 c 0.06,0.082 0.09,0.167 0.091,0.251 v 0 c 0.002,0.123 -0.059,0.247 -0.18,0.36 v 0 c -0.187,0.176 -0.508,0.315 -0.905,0.394 v 0 c -0.239,0.02 -0.467,0.063 -0.663,0.128 v 0 c -0.236,0.078 -0.42,0.182 -0.532,0.303 v 0 c -0.076,0.169 -0.115,0.341 -0.116,0.513 v 0 c 0,0.025 0.001,0.05 0.003,0.074 v 0 c 0.01,0.176 0.061,0.349 0.15,0.52 v 0 c -0.153,0.264 -0.503,0.496 -0.994,0.658 v 0 c -0.379,0.125 -0.826,0.203 -1.295,0.224 v 0 c -0.326,-0.01 -0.655,-0.012 -0.982,-0.006 v 0 c -0.355,0.008 -0.709,0.026 -1.058,0.055 v 0 c -0.557,0.115 -1.078,0.262 -1.553,0.436 v 0 c -0.501,0.183 -0.945,0.396 -1.318,0.633 v 0 c -0.44,0.114 -0.941,0.169 -1.449,0.164 v 0 c -0.464,-0.005 -0.917,-0.062 -1.319,-0.167 v 0 c -0.256,-0.042 -0.527,-0.062 -0.801,-0.062 v 0 c -0.338,0 -0.673,0.035 -0.978,0.1 v 0 c -0.387,0.125 -0.849,0.197 -1.326,0.205 v 0 c -0.027,10e-4 -0.054,10e-4 -0.081,10e-4 v 0 c -0.007,0 -0.014,0 -0.021,0"
               style="fill:url(#linearGradient1176);stroke:none"
               id="path1178" /></g></g></g></g><g
       id="g1190"><g
         id="g1192"
         clip-path="url(#clipPath1196)"><g
           id="g1198"
           transform="translate(121.9456,711.7875)"><path
             d="M 0,0 0.858,0.626 2.099,1.467 3.644,1.511 5.052,1.231 6.51,1.422 7.678,0.851 9.493,0.434 10.3,-0.428 12.223,-1.622 12.124,-2.397 12.847,-3.454 12.459,-4.24 12.123,-5.468 11.4,-6.178 10.633,-6.842 10.38,-7.456 10.061,-8.114 8.696,-8.725 6.069,-8.61 3.913,-8.248 2.582,-7.676 2.245,-7.325 1.083,-6.601 C 0.8,-6.527 0.54,-6.42 0.319,-6.285 c -0.263,0.16 -0.466,0.356 -0.595,0.574 -0.014,0.155 -0.026,0.311 -0.034,0.466 -0.01,0.178 -0.016,0.355 -0.018,0.533 l -0.735,0.647 -0.433,1.197 0.397,1.219 0.663,1.065 z"
             style="fill:none;stroke:#110f0d;stroke-width:0.5;stroke-linecap:butt;stroke-linejoin:miter;stroke-miterlimit:4;stroke-dasharray:1, 1;stroke-dashoffset:0;stroke-opacity:1"
             id="path1200" /></g></g></g><g
       id="g1208"><g
         id="g1210"
         clip-path="url(#clipPath1214)"><g
           id="g1216"
           transform="translate(260.9699,710.7502)"><path
             d="M 0,0 0.858,0.626 2.099,1.467 3.644,1.511 5.052,1.231 6.51,1.422 7.678,0.851 9.493,0.434 10.3,-0.428 12.223,-1.622 12.124,-2.397 12.847,-3.454 12.459,-4.24 12.123,-5.468 11.4,-6.178 10.633,-6.842 10.38,-7.456 10.061,-8.114 8.696,-8.725 6.069,-8.61 3.913,-8.248 2.582,-7.676 2.245,-7.325 1.083,-6.601 C 0.8,-6.527 0.54,-6.42 0.319,-6.285 c -0.263,0.16 -0.466,0.356 -0.595,0.574 -0.014,0.155 -0.026,0.311 -0.034,0.466 -0.01,0.178 -0.016,0.355 -0.018,0.533 l -0.735,0.647 -0.433,1.197 0.397,1.219 0.663,1.065 z"
             style="fill:none;stroke:#ed2123;stroke-width:1;stroke-linecap:butt;stroke-linejoin:miter;stroke-miterlimit:4;stroke-dasharray:none;stroke-opacity:1"
             id="path1218" /></g></g></g><g
       id="g1224"><g
         id="g1226"
         clip-path="url(#clipPath1230)"><g
           id="g1232"
           transform="translate(317.2311,710.7496)"><path
             d="M 0,0 0.858,0.626 2.099,1.467 3.644,1.512 5.052,1.231 6.51,1.422 7.678,0.852 9.493,0.434 10.3,-0.428 12.223,-1.622 12.124,-2.397 12.847,-3.454 12.459,-4.24 12.123,-5.468 11.4,-6.178 10.633,-6.842 10.38,-7.456 10.061,-8.113 8.696,-8.725 6.069,-8.61 3.913,-8.247 2.582,-7.676 2.245,-7.325 1.083,-6.6 C 0.8,-6.527 0.54,-6.42 0.319,-6.285 c -0.263,0.16 -0.466,0.356 -0.595,0.574 -0.014,0.155 -0.026,0.311 -0.034,0.466 -0.01,0.178 -0.016,0.355 -0.018,0.533 l -0.735,0.647 -0.433,1.197 0.397,1.219 0.663,1.065 z"
             style="fill:none;stroke:#ed2123;stroke-width:0.5;stroke-linecap:butt;stroke-linejoin:miter;stroke-miterlimit:4;stroke-dasharray:1, 1;stroke-dashoffset:0;stroke-opacity:1"
             id="path1234" /></g></g></g><text
       xml:space="preserve"
       style="font-style:normal;font-variant:normal;font-weight:normal;font-stretch:normal;font-size:6px;line-height:1.25;font-family:sans-serif;-inkscape-font-specification:'sans-serif, Normal';font-variant-ligatures:normal;font-variant-caps:normal;font-variant-numeric:normal;font-variant-east-asian:normal;stroke-width:0.75"
       x="167.45049"
       y="-694.95245"
       id="text40865"
       transform="scale(1,-1)"><tspan
         sodipodi:role="line"
         id="tspan40863"
         style="font-style:normal;font-variant:normal;font-weight:normal;font-stretch:normal;font-size:6px;font-family:sans-serif;-inkscape-font-specification:'sans-serif, Normal';font-variant-ligatures:normal;font-variant-caps:normal;font-variant-numeric:normal;font-variant-east-asian:normal;stroke-width:0.75"
         x="167.45049"
         y="-694.95245">Weak</tspan></text><text
       xml:space="preserve"
       style="font-size:6px;line-height:1.25;font-family:sans-serif;-inkscape-font-specification:sans-serif;stroke-width:0.75"
       x="67.763893"
       y="-716.59161"
       id="text53643"
       transform="scale(1,-1)"><tspan
         sodipodi:role="line"
         id="tspan53641"
         style="stroke-width:0.75"
         x="67.763893"
         y="-716.59161">Neural response to B</tspan></text><text
       xml:space="preserve"
       style="font-size:6px;line-height:1.25;font-family:sans-serif;-inkscape-font-specification:sans-serif;stroke-width:0.75"
       x="59.806461"
       y="-694.95245"
       id="text68625"
       transform="scale(1,-1)"><tspan
         sodipodi:role="line"
         style="stroke-width:0.75"
         x="59.806461"
         y="-694.95245"
         id="tspan68627">(actual)</tspan></text><text
       xml:space="preserve"
       style="font-size:6px;line-height:1.25;font-family:sans-serif;-inkscape-font-specification:sans-serif;stroke-width:0.75"
       x="109.98988"
       y="-694.95245"
       id="text72335"
       transform="scale(1,-1)"><tspan
         sodipodi:role="line"
         id="tspan72333"
         style="stroke-width:0.75"
         x="109.98988"
         y="-694.95245">(no fatigue)</tspan></text><text
       xml:space="preserve"
       style="font-size:6px;line-height:1.25;font-family:sans-serif;-inkscape-font-specification:sans-serif;stroke-width:0.75"
       x="203.68243"
       y="-694.95245"
       id="text78765"
       transform="scale(1,-1)"><tspan
         sodipodi:role="line"
         id="tspan78763"
         style="stroke-width:0.75"
         x="203.68243"
         y="-694.95245">Strong</tspan></text><text
       xml:space="preserve"
       style="font-size:6px;line-height:1.25;font-family:sans-serif;-inkscape-font-specification:sans-serif;stroke-width:0.75"
       x="183.54057"
       y="-716.59161"
       id="text83451"
       transform="scale(1,-1)"><tspan
         sodipodi:role="line"
         id="tspan83449"
         style="stroke-width:0.75"
         x="183.54057"
         y="-716.59161">Fatigue</tspan></text><text
       xml:space="preserve"
       style="font-size:6px;line-height:1.25;font-family:sans-serif;-inkscape-font-specification:sans-serif;stroke-width:0.75"
       x="263.23102"
       y="-716.59161"
       id="text86264"
       transform="scale(1,-1)"><tspan
         sodipodi:role="line"
         id="tspan86262"
         style="stroke-width:0.75"
         x="263.23102"
         y="-716.59161">Neural response to A</tspan></text><text
       xml:space="preserve"
       style="font-size:6px;line-height:1.25;font-family:sans-serif;-inkscape-font-specification:sans-serif;stroke-width:0.75"
       x="255.09186"
       y="-694.95245"
       id="text89734"
       transform="scale(1,-1)"><tspan
         sodipodi:role="line"
         style="stroke-width:0.75"
         x="255.09186"
         y="-694.95245"
         id="tspan89732">(actual)</tspan></text><text
       xml:space="preserve"
       style="font-size:6px;line-height:1.25;font-family:sans-serif;-inkscape-font-specification:sans-serif;stroke-width:0.75"
       x="305.27545"
       y="-694.95245"
       id="text89738"
       transform="scale(1,-1)"><tspan
         sodipodi:role="line"
         id="tspan89736"
         style="stroke-width:0.75"
         x="305.27545"
         y="-694.95245">(no fatigue)</tspan></text><text
       xml:space="preserve"
       style="font-size:8px;line-height:1.25;font-family:sans-serif;-inkscape-font-specification:sans-serif;stroke-width:0.75"
       x="339.32944"
       y="-822.2923"
       id="text91480"
       transform="scale(1,-1)"><tspan
         sodipodi:role="line"
         id="tspan91478"
         style="font-size:8px;stroke-width:0.75"
         x="339.32944"
         y="-822.2923">Local fatigue</tspan></text><text
       xml:space="preserve"
       style="font-size:8px;line-height:1.25;font-family:sans-serif;-inkscape-font-specification:sans-serif;stroke-width:0.75"
       x="464.25134"
       y="-822.2923"
       id="text96698"
       transform="scale(1,-1)"><tspan
         sodipodi:role="line"
         id="tspan96696"
         style="font-size:8px;stroke-width:0.75"
         x="464.25134"
         y="-822.2923">Global fatigue</tspan></text><text
       xml:space="preserve"
       style="font-weight:bold;font-size:9px;line-height:1.25;font-family:sans-serif;-inkscape-font-specification:'sans-serif Bold';stroke-width:0.75"
       x="30.294304"
       y="-822.2923"
       id="text103152"
       transform="scale(1,-1)"><tspan
         sodipodi:role="line"
         id="tspan103150"
         style="stroke-width:0.75"
         x="30.294304"
         y="-822.2923">A</tspan></text><text
       xml:space="preserve"
       style="font-weight:bold;font-size:9px;line-height:1.25;font-family:sans-serif;-inkscape-font-specification:'sans-serif Bold';stroke-width:0.75"
       x="436.25333"
       y="-822.2923"
       id="text105796"
       transform="scale(1,-1)"><tspan
         sodipodi:role="line"
         id="tspan105794"
         style="stroke-width:0.75"
         x="436.25333"
         y="-822.2923">B</tspan></text></g></svg>
